<svg xmlns="http://www.w3.org/2000/svg" xmlns:xlink="http://www.w3.org/1999/xlink" width="1200" zoomAndPan="magnify" viewBox="0 0 900 899.99999" height="1200" preserveAspectRatio="xMidYMid meet" version="1.0"><defs><clipPath id="67d08d273f"><path d="M 6.167969 101.371094 L 894 101.371094 L 894 798.628906 L 6.167969 798.628906 Z M 6.167969 101.371094 " clip-rule="nonzero"/></clipPath><clipPath id="da8038ebbe"><path d="M 893.832031 450 L 433.238281 101.371094 L 433.238281 331.667969 L 6.167969 331.667969 L 6.167969 568.332031 L 433.238281 568.332031 L 433.238281 798.628906 Z M 893.832031 450 " clip-rule="nonzero"/></clipPath><clipPath id="6ee77894d0"><path d="M 0.167969 0.371094 L 888 0.371094 L 888 697.628906 L 0.167969 697.628906 Z M 0.167969 0.371094 " clip-rule="nonzero"/></clipPath><clipPath id="d91f954252"><path d="M 887.832031 349 L 427.238281 0.371094 L 427.238281 230.667969 L 0.167969 230.667969 L 0.167969 467.332031 L 427.238281 467.332031 L 427.238281 697.628906 Z M 887.832031 349 " clip-rule="nonzero"/></clipPath><clipPath id="0ab2049353"><rect x="0" width="888" y="0" height="698"/></clipPath></defs><g clip-path="url(#67d08d273f)"><g clip-path="url(#da8038ebbe)"><g transform="matrix(1, 0, 0, 1, 6, 101)"><g clip-path="url(#0ab2049353)"><g clip-path="url(#6ee77894d0)"><g clip-path="url(#d91f954252)"><path fill="#85d340" d="M 0.167969 0.371094 L 888.078125 0.371094 L 888.078125 697.628906 L 0.167969 697.628906 Z M 0.167969 0.371094 " fill-opacity="1" fill-rule="nonzero"/></g></g></g></g></g></g></svg>